<!DOCTYPE svg PUBLIC "-//W3C//DTD SVG 20010904//EN" "http://www.w3.org/TR/2001/REC-SVG-20010904/DTD/svg10.dtd">
<svg version="1.0" xmlns="http://www.w3.org/2000/svg" width="31px" height="50px" viewBox="0 0 310 500" preserveAspectRatio="xMidYMid meet">
<g id="layer101" fill="#c70505" stroke="none">
<path d="M0 250 l0 -250 155 0 155 0 0 250 0 250 -155 0 -155 0 0 -250z"/>
</g>
<g id="layer102" fill="#dd6969" stroke="none">
<path d="M0 385 c0 -63 3 -115 8 -115 4 1 59 52 122 115 l115 115 -122 0 -123 0 0 -115z"/>
<path d="M0 115 l0 -115 123 0 122 0 -115 115 c-63 63 -118 114 -122 115 -5 0 -8 -52 -8 -115z"/>
</g>
<g id="layer103" fill="#f1bebe" stroke="none">
<path d="M0 384 l0 -116 67 60 c38 33 93 86 123 116 l54 56 -122 0 -122 0 0 -116z"/>
<path d="M285 480 c10 -11 20 -20 22 -20 1 0 3 9 3 20 0 14 -7 20 -22 20 -20 0 -21 -1 -3 -20z"/>
<path d="M215 340 l-90 -90 93 -93 92 -92 0 183 c0 100 -1 182 -3 182 -1 0 -43 -41 -92 -90z"/>
<path d="M0 116 l0 -116 122 0 122 0 -54 56 c-30 30 -85 83 -122 116 l-68 60 0 -116z"/>
<path d="M285 20 c-18 -19 -17 -20 3 -20 15 0 22 6 22 20 0 25 -2 25 -25 0z"/>
</g>
<g id="layer104" fill="#fffefe" stroke="none">
<path d="M0 384 l0 -116 44 39 c24 21 76 73 116 116 l72 77 -116 0 -116 0 0 -116z"/>
<path d="M280 496 c0 -2 7 -9 15 -16 12 -10 15 -10 15 4 0 9 -7 16 -15 16 -8 0 -15 -2 -15 -4z"/>
<path d="M215 336 l-90 -86 90 -86 90 -86 3 86 c1 47 1 125 0 172 l-3 86 -90 -86z"/>
<path d="M0 116 l0 -116 116 0 116 0 -72 77 c-40 43 -92 95 -116 116 l-44 39 0 -116z"/>
<path d="M290 15 c-10 -12 -10 -15 4 -15 9 0 16 7 16 15 0 8 -2 15 -4 15 -2 0 -9 -7 -16 -15z"/>
</g>


</svg>